<svg aria-label="Чаты" fill="#262626" height="24" width="24"  viewBox="0 0 512.001 512.001" style="enable-background:new 0 0 512.001 512.001;" xml:space="preserve">
   <path d="M509.302,106.613c-0.082-0.25-0.175-0.496-0.259-0.746c-0.11-0.319-0.217-0.64-0.333-0.956
			c-0.115-0.314-0.238-0.623-0.36-0.934c-0.122-0.315-0.243-0.631-0.371-0.942c-0.126-0.304-0.259-0.603-0.39-0.905
			c-0.135-0.309-0.267-0.621-0.409-0.926c-0.136-0.296-0.279-0.587-0.421-0.878c-0.147-0.304-0.292-0.609-0.445-0.909
			c-0.146-0.287-0.299-0.568-0.451-0.852c-0.159-0.298-0.316-0.597-0.481-0.89c-0.157-0.28-0.322-0.555-0.484-0.831
			c-0.169-0.288-0.336-0.579-0.511-0.864c-0.167-0.272-0.341-0.538-0.513-0.806c-0.18-0.282-0.359-0.565-0.545-0.844
			c-0.176-0.263-0.359-0.52-0.54-0.778c-0.191-0.275-0.381-0.551-0.578-0.82c-0.185-0.254-0.376-0.501-0.565-0.75
			c-0.204-0.268-0.404-0.538-0.612-0.801c-0.191-0.243-0.391-0.479-0.587-0.718c-0.214-0.26-0.426-0.523-0.646-0.779
			c-0.201-0.235-0.41-0.463-0.614-0.693c-0.224-0.252-0.445-0.505-0.673-0.752c-0.208-0.224-0.423-0.442-0.634-0.662
			c-0.235-0.244-0.467-0.491-0.708-0.73c-0.215-0.215-0.436-0.422-0.656-0.632c-0.245-0.235-0.486-0.473-0.736-0.702
			c-0.224-0.207-0.454-0.406-0.682-0.609c-0.253-0.224-0.503-0.452-0.759-0.67c-0.232-0.198-0.47-0.388-0.706-0.581
			c-0.26-0.214-0.52-0.431-0.785-0.64c-0.238-0.188-0.483-0.368-0.726-0.552c-0.269-0.205-0.536-0.412-0.81-0.61
			c-0.246-0.179-0.499-0.349-0.748-0.523c-0.277-0.194-0.551-0.391-0.833-0.579c-0.255-0.17-0.515-0.332-0.774-0.498
			c-0.283-0.181-0.562-0.366-0.848-0.542c-0.262-0.161-0.53-0.313-0.795-0.469c-0.289-0.17-0.577-0.344-0.87-0.509
			c-0.268-0.15-0.542-0.292-0.813-0.437c-0.296-0.159-0.59-0.322-0.889-0.475c-0.276-0.141-0.558-0.274-0.838-0.41
			c-0.3-0.147-0.599-0.297-0.903-0.439c-0.284-0.131-0.572-0.253-0.858-0.378c-0.305-0.135-0.608-0.273-0.916-0.401
			c-0.294-0.122-0.593-0.235-0.89-0.352c-0.306-0.12-0.61-0.246-0.918-0.361c-0.302-0.112-0.608-0.214-0.913-0.319
			c-0.309-0.108-0.617-0.22-0.928-0.323c-0.311-0.101-0.626-0.193-0.938-0.288c-0.311-0.095-0.619-0.195-0.933-0.284
			c-0.317-0.09-0.64-0.169-0.959-0.254c-0.314-0.082-0.625-0.17-0.94-0.246c-0.326-0.079-0.657-0.147-0.985-0.219
			c-0.313-0.069-0.624-0.145-0.939-0.208c-0.348-0.07-0.701-0.128-1.052-0.19c-0.299-0.053-0.598-0.114-0.898-0.161
			c-0.367-0.059-0.738-0.105-1.107-0.156c-0.289-0.04-0.577-0.086-0.867-0.12c-0.394-0.047-0.792-0.081-1.19-0.119
			c-0.268-0.026-0.535-0.058-0.806-0.08c-0.439-0.035-0.88-0.056-1.321-0.079c-0.233-0.012-0.463-0.032-0.696-0.041
			c-0.677-0.028-1.355-0.041-2.035-0.041H50.087c-0.68,0-1.358,0.013-2.034,0.04c-0.233,0.009-0.463,0.029-0.696,0.041
			c-0.441,0.023-0.883,0.045-1.321,0.079c-0.269,0.021-0.536,0.055-0.806,0.08c-0.397,0.038-0.795,0.071-1.19,0.119
			c-0.29,0.035-0.578,0.081-0.867,0.12c-0.37,0.051-0.74,0.097-1.107,0.156c-0.302,0.048-0.599,0.108-0.898,0.161
			c-0.351,0.062-0.703,0.12-1.052,0.19c-0.315,0.063-0.627,0.138-0.939,0.208c-0.328,0.072-0.659,0.14-0.985,0.219
			c-0.316,0.077-0.627,0.164-0.941,0.246c-0.321,0.085-0.642,0.164-0.959,0.254c-0.315,0.089-0.626,0.19-0.937,0.285
			s-0.624,0.186-0.933,0.286c-0.314,0.102-0.622,0.216-0.934,0.325c-0.303,0.106-0.608,0.207-0.908,0.318
			c-0.308,0.115-0.612,0.239-0.918,0.361c-0.297,0.117-0.597,0.229-0.89,0.352c-0.308,0.128-0.611,0.267-0.916,0.401
			c-0.286,0.126-0.574,0.247-0.858,0.378c-0.304,0.14-0.602,0.292-0.903,0.439c-0.279,0.136-0.561,0.268-0.838,0.41
			c-0.299,0.152-0.593,0.315-0.889,0.475c-0.27,0.146-0.544,0.287-0.813,0.437c-0.293,0.165-0.58,0.338-0.87,0.509
			c-0.265,0.156-0.533,0.308-0.795,0.469c-0.286,0.176-0.567,0.361-0.848,0.542c-0.258,0.166-0.519,0.327-0.774,0.497
			c-0.281,0.188-0.555,0.385-0.833,0.579c-0.249,0.174-0.502,0.345-0.748,0.523c-0.274,0.198-0.541,0.406-0.81,0.61
			c-0.243,0.184-0.488,0.364-0.726,0.552c-0.265,0.209-0.524,0.426-0.785,0.64c-0.235,0.194-0.473,0.384-0.706,0.581
			c-0.257,0.219-0.508,0.446-0.759,0.67c-0.228,0.203-0.459,0.402-0.682,0.609c-0.249,0.23-0.491,0.468-0.736,0.702
			c-0.219,0.21-0.441,0.417-0.656,0.632c-0.24,0.239-0.473,0.486-0.708,0.73c-0.211,0.22-0.426,0.437-0.634,0.662
			c-0.228,0.246-0.45,0.5-0.673,0.752c-0.206,0.23-0.413,0.459-0.614,0.693c-0.219,0.256-0.431,0.519-0.646,0.779
			c-0.196,0.239-0.395,0.475-0.587,0.718c-0.209,0.265-0.412,0.536-0.615,0.806c-0.188,0.247-0.378,0.493-0.561,0.745
			c-0.197,0.272-0.387,0.549-0.58,0.825c-0.18,0.258-0.363,0.513-0.538,0.776c-0.188,0.278-0.366,0.561-0.547,0.844
			c-0.173,0.268-0.346,0.534-0.513,0.806c-0.175,0.285-0.342,0.574-0.511,0.864c-0.163,0.277-0.326,0.551-0.484,0.831
			c-0.165,0.294-0.322,0.592-0.481,0.89c-0.15,0.284-0.304,0.565-0.451,0.851c-0.152,0.301-0.298,0.605-0.445,0.909
			c-0.14,0.293-0.285,0.583-0.421,0.879c-0.14,0.306-0.274,0.617-0.409,0.926c-0.131,0.302-0.265,0.601-0.39,0.905
			c-0.128,0.312-0.249,0.627-0.371,0.942c-0.121,0.311-0.244,0.62-0.36,0.934c-0.116,0.316-0.224,0.637-0.333,0.956
			c-0.086,0.249-0.178,0.494-0.26,0.746C0.907,111.504,0,116.824,0,122.435v267.13c0,26.988,21.457,49.045,48.206,50.039
			c0.288,0.012,0.578,0.014,0.866,0.022c0.339,0.007,0.674,0.026,1.015,0.026h0.278h411.548h0.278
			c21.856,0,40.956-13.943,47.527-34.696c0.252-0.796,0.437-1.602,0.567-2.412c1.113-4.142,1.715-8.491,1.715-12.98V122.435
			C512,116.824,511.093,111.504,509.302,106.613z M39.894,109.29c0.21-0.164,0.421-0.328,0.639-0.482
			c0.157-0.11,0.318-0.215,0.479-0.319c0.217-0.142,0.435-0.284,0.659-0.416c0.168-0.1,0.34-0.195,0.511-0.288
			c0.226-0.124,0.454-0.243,0.686-0.356c0.176-0.087,0.355-0.169,0.534-0.249c0.237-0.106,0.477-0.205,0.719-0.299
			c0.181-0.071,0.363-0.141,0.548-0.206c0.25-0.088,0.504-0.166,0.759-0.242c0.183-0.055,0.364-0.11,0.549-0.158
			c0.268-0.07,0.54-0.127,0.811-0.184c0.177-0.037,0.353-0.078,0.532-0.109c0.302-0.052,0.608-0.088,0.915-0.124
			c0.152-0.018,0.304-0.043,0.457-0.057c0.462-0.038,0.927-0.061,1.396-0.061h411.826c0.469,0,0.934,0.023,1.396,0.062
			c0.154,0.013,0.305,0.039,0.457,0.057c0.306,0.035,0.612,0.071,0.915,0.124c0.179,0.031,0.355,0.072,0.532,0.109
			c0.272,0.057,0.544,0.114,0.811,0.184c0.185,0.048,0.366,0.105,0.549,0.158c0.255,0.076,0.509,0.155,0.759,0.242
			c0.185,0.065,0.366,0.135,0.548,0.206c0.242,0.095,0.482,0.194,0.719,0.299c0.179,0.08,0.358,0.162,0.534,0.249
			c0.232,0.114,0.46,0.233,0.686,0.356c0.171,0.094,0.343,0.188,0.511,0.288c0.224,0.132,0.442,0.273,0.659,0.416
			c0.16,0.106,0.322,0.209,0.479,0.319c0.218,0.155,0.429,0.318,0.639,0.482c0.112,0.088,0.226,0.174,0.336,0.264L267.79,314.204
			c-3.144,3.144-7.332,4.877-11.79,4.877c-4.459,0-8.646-1.733-11.792-4.877L39.558,109.554
			C39.668,109.463,39.781,109.378,39.894,109.29z M33.391,150.609l105.53,105.53l-105.53,105.53V150.609z M461.913,406.261H50.365
			c-3.917,0-7.632-1.417-10.535-3.809L162.532,279.75l58.065,58.065c9.452,9.452,22.025,14.658,35.403,14.658
			c13.378,0,25.951-5.206,35.402-14.658l58.344-58.344l122.881,122.881C469.724,404.788,465.989,406.261,461.913,406.261z
			 M478.609,361.112L373.356,255.861l105.253-105.252V361.112z"/>
</svg>